# xmcd
#
# Track frame offsets:
#	182
#	18227
#	38367
#	60155
#
# Disc length: 1152 seconds
#
# Revision: 0
# Processed by: cddbd v1.5.1PL0 Copyright (c) Steve Scherf et al.
# Submitted via: EasyCDDAExtractor 7.1.3.1
#
DISCID=1c047e04
DTITLE=Olivia Newton-John And John Travolta - Grease Megamix
DYEAR=1995
DGENRE=Oldies
TTITLE0=Megamix(Grease Megamix-Radio Edit)
TTITLE1=Megamix(Grease Megamix-Thorman - Dutrey Radio Edit)
TTITLE2=Megamix(Grease Megamix-Album Version)
TTITLE3=Megamix(Grease Megamix-Full 12 Inch Version)
EXTD=
EXTT0=
EXTT1=
EXTT2=
EXTT3=
PLAYORDER=
